<?xml version="1.0" encoding="UTF-8"?>
<svg version="1.1" xmlns="http://www.w3.org/2000/svg" width="182" height="121">
<path d="M0 0 C2.8407054 2.44050539 3.9371344 4.84958444 5.26171875 8.32421875 C5.65810547 9.35224609 6.05449219 10.38027344 6.46289062 11.43945312 C6.86701172 12.51130859 7.27113281 13.58316406 7.6875 14.6875 C8.10322266 15.77095703 8.51894531 16.85441406 8.94726562 17.97070312 C9.97202056 20.64448899 10.98927126 23.32088741 12 26 C16.88906514 22.75677876 21.76524463 19.50334885 26.5625 16.125 C27.40941406 15.52945312 28.25632813 14.93390625 29.12890625 14.3203125 C29.74636719 13.88460938 30.36382812 13.44890625 31 13 C31.99 13.99 31.99 13.99 33 15 C32.81300537 15.64549805 32.62601074 16.29099609 32.43334961 16.95605469 C31.59118521 19.88454383 30.76420784 22.81711186 29.9375 25.75 C29.64294922 26.76578125 29.34839844 27.7815625 29.04492188 28.828125 C28.77099609 29.8078125 28.49707031 30.7875 28.21484375 31.796875 C27.95823975 32.69760742 27.70163574 33.59833984 27.43725586 34.52636719 C26.98553085 37.08185452 27.16462648 38.57072388 28 41 C9.65849264 41.68308308 -8.64252532 42.17024338 -27 42 C-26.67 40.35 -26.34 38.7 -26 37 C-8.675 36.01 -8.675 36.01 9 35 C7.700625 31.720625 6.40125 28.44125 5.0625 25.0625 C4.44967163 23.50994507 4.44967163 23.50994507 3.82446289 21.92602539 C3.5021167 21.11641357 3.17977051 20.30680176 2.84765625 19.47265625 C2.51773682 18.64000244 2.18781738 17.80734863 1.84790039 16.94946289 C1.15652731 15.03439366 1.15652731 15.03439366 0 14 C-2.97 21.26 -5.94 28.52 -9 36 C-11.59875 36.04125 -14.1975 36.0825 -16.875 36.125 C-17.69210449 36.14320801 -18.50920898 36.16141602 -19.35107422 36.18017578 C-21.23495049 36.19477217 -23.11869312 36.09943482 -25 36 C-27.16821075 33.83178925 -27.50305503 32.82440679 -28.2890625 29.9375 C-28.50820313 29.14085938 -28.72734375 28.34421875 -28.953125 27.5234375 C-29.28570312 26.27433594 -29.28570312 26.27433594 -29.625 25 C-29.85445312 24.16726562 -30.08390625 23.33453125 -30.3203125 22.4765625 C-32 16.29771205 -32 16.29771205 -32 14 C-26.66666257 14.40388381 -23.27897805 17.42635271 -19.1875 20.5625 C-18.49462891 21.08263672 -17.80175781 21.60277344 -17.08789062 22.13867188 C-15.38604337 23.41799154 -13.69221036 24.70796014 -12 26 C-10.19281554 23.28922331 -9.07415771 20.93425297 -7.87109375 17.9296875 C-7.47599609 16.95128906 -7.08089844 15.97289062 -6.67382812 14.96484375 C-6.26583984 13.94519531 -5.85785156 12.92554688 -5.4375 11.875 C-4.62598042 9.850646 -3.81229559 7.82715819 -2.99609375 5.8046875 C-2.63700928 4.90733887 -2.2779248 4.00999023 -1.90795898 3.08544922 C-1 1 -1 1 0 0 Z M-24 24 C-23.72459296 27.81813447 -23.72459296 27.81813447 -22 31 C-19.32941149 31.14115161 -16.67567762 31.04247107 -14 31 C-17.19668988 28.3513141 -20.39486597 26.06007659 -24 24 Z M19.4375 26.9375 C18.61121094 27.48277344 17.78492188 28.02804688 16.93359375 28.58984375 C16.29550781 29.05519531 15.65742187 29.52054688 15 30 C15 30.33 15 30.66 15 31 C17.64 31 20.28 31 23 31 C23.66 28.69 24.32 26.38 25 24 C22.96323381 24 21.06124809 25.85754235 19.4375 26.9375 Z M12 36 C12 36.33 12 36.66 12 37 C13.98 37 15.96 37 18 37 C18 36.67 18 36.34 18 36 C16.02 36 14.04 36 12 36 Z " fill="#CFB019" transform="translate(91,4)"/>
<path d="M0 0 C4.16391042 1.89268656 5.63113604 3.36936161 7.9375 7.3125 C9.53739245 12.86506793 8.94682201 16.26960115 6.1875 21.3125 C3.57031546 24.52789815 1.73809934 25.75333904 -2.3671875 26.3359375 C-8.0591402 26.4245972 -11.68232699 26.10705481 -16 22 C-18.93783449 16.97725071 -19.45820528 13.62450608 -18 8 C-14.3681979 0.01003538 -8.1295734 -1.1464783 0 0 Z M-12 7 C-13.92863839 9.54229606 -14.00902291 10.78345018 -13.875 14 C-12.85086454 17.51132158 -11.94548102 18.85059493 -9 21 C-5.40619396 22.14695938 -3.73253748 22.316323 -0.25 20.8125 C2.1369064 18.88971429 3.16183001 17.93359496 4 15 C3.85313845 11.47532271 3.39948011 9.5474357 1.3125 6.6875 C-3.51628795 3.16378987 -7.37986049 3.27822095 -12 7 Z " fill="#F6FDFE" transform="translate(53,59)"/>
<path d="M0 0 C5.05255964 0.63156995 9.29593201 2.13459373 14 4 C14 4.66 14 5.32 14 6 C11.36 6.33 8.72 6.66 6 7 C7.093125 6.979375 8.18625 6.95875 9.3125 6.9375 C13 7 13 7 16 8 C16 6.35 16 4.7 16 3 C16.66 3 17.32 3 18 3 C18 4.65 18 6.3 18 8 C18.99 8.33 19.98 8.66 21 9 C21 9.99 21 10.98 21 12 C2.65849264 12.68308308 -15.64252532 13.17024338 -34 13 C-33.67 11.35 -33.34 9.7 -33 8 C-15.675 7.01 -15.675 7.01 2 6 C1.34 4.02 0.68 2.04 0 0 Z " fill="#D4B618" transform="translate(98,33)"/>
<path d="M0 0 C1.65 0 3.3 0 5 0 C5 4.62 5 9.24 5 14 C7.97 14 10.94 14 14 14 C14 9.38 14 4.76 14 0 C15.65 0 17.3 0 19 0 C19 8.58 19 17.16 19 26 C17.35 26 15.7 26 14 26 C14 23.36 14 20.72 14 18 C11.03 18 8.06 18 5 18 C5 20.64 5 23.28 5 26 C3.35 26 1.7 26 0 26 C0 17.42 0 8.84 0 0 Z " fill="#F7FEFE" transform="translate(11,59)"/>
<path d="M0 0 C5.61 0 11.22 0 17 0 C17 1.32 17 2.64 17 4 C13.04 4 9.08 4 5 4 C5 6.64 5 9.28 5 12 C8.3 12 11.6 12 15 12 C15 13.32 15 14.64 15 16 C11.7 16 8.4 16 5 16 C5 17.98 5 19.96 5 22 C8.96 22 12.92 22 17 22 C17 23.32 17 24.64 17 26 C11.39 26 5.78 26 0 26 C0 17.42 0 8.84 0 0 Z " fill="#F7FDFE" transform="translate(84,59)"/>
<path d="M0 0 C0.89203125 0.00902344 1.7840625 0.01804688 2.703125 0.02734375 C3.37859375 0.03894531 4.0540625 0.05054688 4.75 0.0625 C5.08 1.0525 5.41 2.0425 5.75 3.0625 C5.42 3.701875 5.09 4.34125 4.75 5 C3.56827949 6.98339772 3.56827949 6.98339772 3.9375 9.0625 C4.67277221 11.16297336 4.67277221 11.16297336 6.3125 12.9375 C8.32141094 15.90719444 8.31411858 17.53675885 7.75 21.0625 C4.48706897 26.56869612 4.48706897 26.56869612 0.8125 27.61328125 C-3.24265961 27.88208918 -4.89196871 27.33673673 -8.1875 24.8125 C-10.01034171 22.38204439 -10.92031735 21.02964383 -11.25 18.0625 C-8.9375 17.8125 -8.9375 17.8125 -6.25 18.0625 C-4.4375 20.0625 -4.4375 20.0625 -3.25 22.0625 C-1.6 21.7325 0.05 21.4025 1.75 21.0625 C1.75 19.0825 1.75 17.1025 1.75 15.0625 C-1.22 14.5675 -1.22 14.5675 -4.25 14.0625 C-3.26 11.0925 -2.27 8.1225 -1.25 5.0625 C-3.89 5.0625 -6.53 5.0625 -9.25 5.0625 C-9.25 3.7425 -9.25 2.4225 -9.25 1.0625 C-6.09493858 0.12630187 -3.28413498 -0.0432123 0 0 Z " fill="#D2B219" transform="translate(141.25,57.9375)"/>
<path d="M0 0 C2.5625 1.5625 2.5625 1.5625 4 4 C4.75 7.125 4.75 7.125 4 11 C1.59758616 14.57750756 -1.11711059 17.80179456 -4 21 C-1.36 21.33 1.28 21.66 4 22 C4 23.32 4 24.64 4 26 C-0.09725269 27.04167441 -3.61495224 26.94409525 -7.8125 26.5625 C-8.97394531 26.46066406 -10.13539063 26.35882813 -11.33203125 26.25390625 C-12.21246094 26.17011719 -13.09289062 26.08632812 -14 26 C-13.34 25.67 -12.68 25.34 -12 25 C-11.71382812 24.42121094 -11.42765625 23.84242187 -11.1328125 23.24609375 C-9.26911087 19.55082327 -6.38193339 16.64610481 -3.6796875 13.53515625 C-1.80708211 10.70882857 -1.63216115 9.31648252 -2 6 C-4.97 5.505 -4.97 5.505 -8 5 C-8.33 5.99 -8.66 6.98 -9 8 C-10.32 8 -11.64 8 -13 8 C-12.6875 5.125 -12.6875 5.125 -12 2 C-7.97394068 -0.68403955 -4.7279338 -0.67419995 0 0 Z " fill="#C0AA2D" transform="translate(167,59)"/>
<path d="M0 0 C5.94 0 11.88 0 18 0 C18 1.32 18 2.64 18 4 C16.02 4 14.04 4 12 4 C12 11.26 12 18.52 12 26 C10.35 26 8.7 26 7 26 C7 18.74 7 11.48 7 4 C4.69 4 2.38 4 0 4 C0 2.68 0 1.36 0 0 Z " fill="#F7FEFE" transform="translate(64,59)"/>
<path d="M0 0 C1.65 0 3.3 0 5 0 C5 7.26 5 14.52 5 22 C8.63 22 12.26 22 16 22 C16 23.32 16 24.64 16 26 C10.72 26 5.44 26 0 26 C0 17.42 0 8.84 0 0 Z " fill="#F5FEFE" transform="translate(105,59)"/>
<path d="M0 0 C1.37478516 0.01740234 1.37478516 0.01740234 2.77734375 0.03515625 C3.69644531 0.04417969 4.61554688 0.05320312 5.5625 0.0625 C6.27277344 0.07410156 6.98304687 0.08570312 7.71484375 0.09765625 C7.71484375 2.73765625 7.71484375 5.37765625 7.71484375 8.09765625 C9.03484375 8.09765625 10.35484375 8.09765625 11.71484375 8.09765625 C11.71484375 5.45765625 11.71484375 2.81765625 11.71484375 0.09765625 C14.02484375 0.09765625 16.33484375 0.09765625 18.71484375 0.09765625 C19.33984375 3.47265625 19.33984375 3.47265625 19.71484375 7.09765625 C17.71484375 9.09765625 17.71484375 9.09765625 15.66772461 9.34057617 C14.43614624 9.33441284 14.43614624 9.33441284 13.1796875 9.328125 C12.28830078 9.32619141 11.39691406 9.32425781 10.47851562 9.32226562 C9.07956055 9.30389648 9.07956055 9.30389648 7.65234375 9.28515625 C6.24758789 9.28418945 6.24758789 9.28418945 4.81445312 9.28320312 C-2.14496401 9.23784849 -2.14496401 9.23784849 -3.28515625 8.09765625 C-3.41015625 4.59765625 -3.41015625 4.59765625 -3.28515625 1.09765625 C-2.28515625 0.09765625 -2.28515625 0.09765625 0 0 Z M-0.28515625 1.09765625 C-1.58149246 2.1641074 -1.58149246 2.1641074 -1.34765625 4.66015625 C-1.32703125 5.46453125 -1.30640625 6.26890625 -1.28515625 7.09765625 C-0.29515625 7.09765625 0.69484375 7.09765625 1.71484375 7.09765625 C1.71484375 5.44765625 1.71484375 3.79765625 1.71484375 2.09765625 C1.05484375 1.76765625 0.39484375 1.43765625 -0.28515625 1.09765625 Z M14.71484375 1.09765625 C14.71484375 3.40765625 14.71484375 5.71765625 14.71484375 8.09765625 C15.37484375 7.76765625 16.03484375 7.43765625 16.71484375 7.09765625 C16.71484375 5.44765625 16.71484375 3.79765625 16.71484375 2.09765625 C16.05484375 1.76765625 15.39484375 1.43765625 14.71484375 1.09765625 Z " fill="#E9FDFE" transform="translate(88.28515625,97.90234375)"/>
<path d="M0 0 C0.99 0.33 1.98 0.66 3 1 C2.67 1.33 2.34 1.66 2 2 C3.58086048 2.36504603 5.16483907 2.71660506 6.75 3.0625 C8.07257813 3.35833984 8.07257813 3.35833984 9.421875 3.66015625 C12.26082652 4.19492255 12.26082652 4.19492255 16 3 C15.34 5.97 14.68 8.94 14 12 C10.625 12.125 10.625 12.125 7 12 C6.34 11.34 5.68 10.68 5 10 C4.34 10.66 3.68 11.32 3 12 C0.4375 12.1875 0.4375 12.1875 -2 12 C-3 11 -3 11 -3.25 7.6875 C-2.99337817 3.90232794 -2.56295176 2.66974142 0 0 Z M0 4 C-1.29633621 5.06645115 -1.29633621 5.06645115 -1.0625 7.5625 C-1.041875 8.366875 -1.02125 9.17125 -1 10 C-0.01 10 0.98 10 2 10 C2 8.35 2 6.7 2 5 C1.34 4.67 0.68 4.34 0 4 Z " fill="#E8FBFC" transform="translate(65,95)"/>
<path d="M0 0 C5.05255964 0.63156995 9.29593201 2.13459373 14 4 C14 4.66 14 5.32 14 6 C11.36 6.33 8.72 6.66 6 7 C7.093125 6.979375 8.18625 6.95875 9.3125 6.9375 C13 7 13 7 16 8 C16 6.35 16 4.7 16 3 C16.66 3 17.32 3 18 3 C18.66 5.64 19.32 8.28 20 11 C17.37493198 11.02690844 14.75013827 11.04679404 12.125 11.0625 C11.37863281 11.07087891 10.63226563 11.07925781 9.86328125 11.08789062 C4.2265625 11.11328125 4.2265625 11.11328125 2 10 C1.61250787 7.67504723 1.28241883 5.3400417 1 3 C0.67 2.01 0.34 1.02 0 0 Z " fill="#DEAF06" transform="translate(98,33)"/>
<path d="M0 0 C4.46220684 0.0132018 8.51518458 0.20468877 12.890625 1.1328125 C13.880625 0.8028125 14.870625 0.4728125 15.890625 0.1328125 C15.230625 3.1028125 14.570625 6.0728125 13.890625 9.1328125 C10.515625 9.2578125 10.515625 9.2578125 6.890625 9.1328125 C6.230625 8.4728125 5.570625 7.8128125 4.890625 7.1328125 C4.560625 7.7928125 4.230625 8.4528125 3.890625 9.1328125 C1.89107754 9.17535606 -0.10979136 9.17362033 -2.109375 9.1328125 C-3.109375 8.1328125 -3.109375 8.1328125 -3.234375 4.6328125 C-3.07583397 0.19366362 -3.07583397 0.19366362 0 0 Z M-0.109375 1.1328125 C-1.40571121 2.19926365 -1.40571121 2.19926365 -1.171875 4.6953125 C-1.15125 5.4996875 -1.130625 6.3040625 -1.109375 7.1328125 C-0.119375 7.1328125 0.870625 7.1328125 1.890625 7.1328125 C1.890625 5.4828125 1.890625 3.8328125 1.890625 2.1328125 C1.230625 1.8028125 0.570625 1.4728125 -0.109375 1.1328125 Z " fill="#E7FCFC" transform="translate(122.109375,97.8671875)"/>
<path d="M0 0 C2.31 0 4.62 0 7 0 C6.34 1.65 5.68 3.3 5 5 C5.66 5.66 6.32 6.32 7 7 C7.33 4.69 7.66 2.38 8 0 C10.31 0 12.62 0 15 0 C15 2.97 15 5.94 15 9 C10 9 5 9 0 9 C0 6.03 0 3.06 0 0 Z M11 1 C11.33 1.99 11.66 2.98 12 4 C12 3.01 12 2.02 12 1 C11.67 1 11.34 1 11 1 Z " fill="#EAFCFD" transform="translate(30,98)"/>
<path d="M0 0 C0.99 1.32 1.98 2.64 3 4 C2.67 4.33 2.34 4.66 2 5 C4.64 5.33 7.28 5.66 10 6 C10 7.32 10 8.64 10 10 C5.90274731 11.04167441 2.38504776 10.94409525 -1.8125 10.5625 C-2.97394531 10.46066406 -4.13539063 10.35882813 -5.33203125 10.25390625 C-6.21246094 10.17011719 -7.09289062 10.08632812 -8 10 C-7.34 9.67 -6.68 9.34 -6 9 C-5.71125 8.4225 -5.4225 7.845 -5.125 7.25 C-3.75594553 4.51189105 -1.95444103 2.34532924 0 0 Z " fill="#CCAE1D" transform="translate(161,75)"/>
<path d="M0 0 C2.1875 -0.3125 2.1875 -0.3125 5 0 C6.68762851 1.6454378 8.3540349 3.31288577 10 5 C12.67790896 5.87238858 12.67790896 5.87238858 15 6 C14.67 6.99 14.34 7.98 14 9 C6.79694786 9.61042815 6.79694786 9.61042815 3.0625 6.75 C1.23965829 4.31954439 0.32968265 2.96714383 0 0 Z " fill="#D1B314" transform="translate(130,76)"/>
<path d="M0 0 C0.8971875 0.5259375 0.8971875 0.5259375 1.8125 1.0625 C4.10813214 2.33304698 4.10813214 2.33304698 7 1 C8.125 7.75 8.125 7.75 7 10 C4.69 10 2.38 10 0 10 C0 9.34 0 8.68 0 8 C-0.99 7.67 -1.98 7.34 -3 7 C-2.01 6.67 -1.02 6.34 0 6 C-0.185625 5.38125 -0.37125 4.7625 -0.5625 4.125 C-1 2 -1 2 0 0 Z " fill="#D3B617" transform="translate(76,28)"/>
<path d="M0 0 C1.37478516 0.01740234 1.37478516 0.01740234 2.77734375 0.03515625 C3.69644531 0.04417969 4.61554688 0.05320313 5.5625 0.0625 C6.27277344 0.07410156 6.98304688 0.08570313 7.71484375 0.09765625 C7.71484375 1.41765625 7.71484375 2.73765625 7.71484375 4.09765625 C5.40484375 4.09765625 3.09484375 4.09765625 0.71484375 4.09765625 C0.38484375 5.08765625 0.05484375 6.07765625 -0.28515625 7.09765625 C-1.60515625 7.09765625 -2.92515625 7.09765625 -4.28515625 7.09765625 C-3.24873605 0.13883487 -3.24873605 0.13883487 0 0 Z " fill="#D1AF15" transform="translate(158.28515625,59.90234375)"/>
<path d="M0 0 C5.05255964 0.63156995 9.29593201 2.13459373 14 4 C14 4.66 14 5.32 14 6 C6.375 7 6.375 7 3 7 C2.01 4.69 1.02 2.38 0 0 Z " fill="#D2B009" transform="translate(98,33)"/>
<path d="M0 0 C2 2 2 2 2.375 4.875 C2 8 2 8 0.3125 10.4375 C-2 12 -2 12 -4.75 11.75 C-5.4925 11.5025 -6.235 11.255 -7 11 C-7 10.34 -7 9.68 -7 9 C-6.01 8.67 -5.02 8.34 -4 8 C-3.29508733 5.67793475 -2.62787571 3.34406932 -2 1 C-1.34 0.67 -0.68 0.34 0 0 Z " fill="#D9B815" transform="translate(147,71)"/>
<path d="M0 0 C0.99 0 1.98 0 3 0 C3.33 0.66 3.66 1.32 4 2 C4.33 1.34 4.66 0.68 5 0 C5.66 0 6.32 0 7 0 C7 2.97 7 5.94 7 9 C6.01 8.67 5.02 8.34 4 8 C4 7.34 4 6.68 4 6 C3.34 6 2.68 6 2 6 C2 6.99 2 7.98 2 9 C1.34 9 0.68 9 0 9 C0 6.03 0 3.06 0 0 Z " fill="#F0FDFD" transform="translate(139,98)"/>
<path d="M0 0 C2.31 0 4.62 0 7 0 C6.608125 0.7425 6.21625 1.485 5.8125 2.25 C5.544375 3.1575 5.27625 4.065 5 5 C6.26352052 7.32511472 6.26352052 7.32511472 8 9 C7.401875 8.814375 6.80375 8.62875 6.1875 8.4375 C3.83591238 7.77906313 3.83591238 7.77906313 1 9 C0.67 6.03 0.34 3.06 0 0 Z " fill="#EBFDFD" transform="translate(54,98)"/>
<path d="M0 0 C2.26185454 2.26185454 3.03921617 3.96983561 4 7 C3.67 7.99 3.34 8.98 3 10 C2.34 10 1.68 10 1 10 C0.67 10.99 0.34 11.98 0 13 C-1.32 10.36 -2.64 7.72 -4 5 C-4.66 5.66 -5.32 6.32 -6 7 C-5.67 5.35 -5.34 3.7 -5 2 C-4.01 2 -3.02 2 -2 2 C-2 2.99 -2 3.98 -2 5 C-1.34 5 -0.68 5 0 5 C0 3.35 0 1.7 0 0 Z " fill="#C6B026" transform="translate(95,13)"/>
<path d="M0 0 C1.32 0.33 2.64 0.66 4 1 C4.66 3.64 5.32 6.28 6 9 C5.01 9 4.02 9 3 9 C3 8.01 3 7.02 3 6 C2.54625 6.495 2.0925 6.99 1.625 7.5 C0 9 0 9 -2 9 C-1.34 6.03 -0.68 3.06 0 0 Z " fill="#E8FBFC" transform="translate(48,98)"/>
<path d="M0 0 C0.33 0.66 0.66 1.32 1 2 C1.495 1.835 1.99 1.67 2.5 1.5 C6.03444089 0.79311182 9.39690701 0.93994845 13 1 C12 4 12 4 10 5 C7.78861145 4.91188555 5.57957815 4.7570216 3.375 4.5625 C2.18648437 4.46066406 0.99796875 4.35882813 -0.2265625 4.25390625 C-1.14179688 4.17011719 -2.05703125 4.08632812 -3 4 C-2.34 3.67 -1.68 3.34 -1 3 C-0.67 2.01 -0.34 1.02 0 0 Z " fill="#DFC021" transform="translate(156,81)"/>
<path d="M0 0 C1.65 0.33 3.3 0.66 5 1 C5 1.66 5 2.32 5 3 C6.98 3 8.96 3 11 3 C11 3.66 11 4.32 11 5 C5.72 5 0.44 5 -5 5 C-5.33 4.34 -5.66 3.68 -6 3 C-4.02 2.67 -2.04 2.34 0 2 C0 1.34 0 0.68 0 0 Z " fill="#C7AD29" transform="translate(71,35)"/>
<path d="M0 0 C2.89932357 2.39509338 3.50168276 4.31245243 4 8 C3.01 8 2.02 8 1 8 C-0.68236471 8.62599617 -2.3523962 9.28752268 -4 10 C-3.52449439 8.51965236 -3.04448784 7.04074979 -2.5625 5.5625 C-2.29566406 4.73878906 -2.02882813 3.91507812 -1.75390625 3.06640625 C-1 1 -1 1 0 0 Z " fill="#C3AE27" transform="translate(91,4)"/>
<path d="M0 0 C4.875 4.625 4.875 4.625 6 8 C5.5625 10.1875 5.5625 10.1875 5 12 C4.34 12 3.68 12 3 12 C3 10.68 3 9.36 3 8 C2.01 7.67 1.02 7.34 0 7 C-1.125 2.25 -1.125 2.25 0 0 Z " fill="#D5B010" transform="translate(96,20)"/>
<path d="M0 0 C2.64 0 5.28 0 8 0 C7.01 0.495 7.01 0.495 6 1 C6 3.64 6 6.28 6 9 C5.01 9 4.02 9 3 9 C3 6.36 3 3.72 3 1 C2.01 0.67 1.02 0.34 0 0 Z " fill="#E7FDFE" transform="translate(111,98)"/>
<path d="M0 0 C0.103125 0.639375 0.20625 1.27875 0.3125 1.9375 C0.539375 2.618125 0.76625 3.29875 1 4 C1.99 4.33 2.98 4.66 4 5 C4 4.34 4 3.68 4 3 C5.32 3.66 6.64 4.32 8 5 C8 5.66 8 6.32 8 7 C7.34 7 6.68 7 6 7 C5.67 7.99 5.34 8.98 5 10 C4.5875 9.505 4.175 9.01 3.75 8.5 C1.87797662 6.56613908 1.87797662 6.56613908 -2 7 C-1.34 4.69 -0.68 2.38 0 0 Z " fill="#C4B22E" transform="translate(139,65)"/>
<path d="M0 0 C4.31392226 0.4793247 6.16569547 1.7457985 9 5 C6.03 4.505 6.03 4.505 3 4 C3.33 4.66 3.66 5.32 4 6 C4.039992 7.99960012 4.04346799 10.00047242 4 12 C2.09681116 9.14521674 1.5380901 7.58058692 0.875 4.3125 C0.70742188 3.50425781 0.53984375 2.69601563 0.3671875 1.86328125 C0.24601562 1.24839844 0.12484375 0.63351563 0 0 Z " fill="#BCAD36" transform="translate(59,18)"/>
<path d="M0 0 C1.32 0.66 2.64 1.32 4 2 C4 3.98 4 5.96 4 8 C1.36 6.35 -1.28 4.7 -4 3 C-2.68 2.67 -1.36 2.34 0 2 C0 1.34 0 0.68 0 0 Z " fill="#C7AD27" transform="translate(72,26)"/>
<path d="M0 0 C0.66 0 1.32 0 2 0 C2.33 1.98 2.66 3.96 3 6 C1.35 6.33 -0.3 6.66 -2 7 C-1.125 1.125 -1.125 1.125 0 0 Z " fill="#CEB920" transform="translate(156,60)"/>
<path d="M0 0 C1.65 0 3.3 0 5 0 C5.66 1.32 6.32 2.64 7 4 C6.01 3.67 5.02 3.34 4 3 C4.66 4.65 5.32 6.3 6 8 C4.125 7.375 4.125 7.375 2 6 C0.75 2.875 0.75 2.875 0 0 Z " fill="#BAAE42" transform="translate(130,76)"/>
<path d="M0 0 C1.98 0 3.96 0 6 0 C6 1.65 6 3.3 6 5 C2.7 5 -0.6 5 -4 5 C-4 4.67 -4 4.34 -4 4 C-1.36 4 1.28 4 4 4 C4 3.34 4 2.68 4 2 C2.68 1.34 1.36 0.68 0 0 Z " fill="#C7A41A" transform="translate(108,35)"/>
<path d="M0 0 C1.80411967 2.75924185 2.0127245 3.88972103 1.625 7.25 C1.41875 8.1575 1.2125 9.065 1 10 C0.34 10 -0.32 10 -1 10 C-1.02689216 8.52093108 -1.04634621 7.04172517 -1.0625 5.5625 C-1.07410156 4.73878906 -1.08570313 3.91507812 -1.09765625 3.06640625 C-1 1 -1 1 0 0 Z " fill="#D7B00B" transform="translate(168,61)"/>
<path d="M0 0 C0.66 0.66 1.32 1.32 2 2 C1.34 4.31 0.68 6.62 0 9 C-0.33 7.68 -0.66 6.36 -1 5 C-1.99 5 -2.98 5 -4 5 C-3 2 -3 2 0 0 Z " fill="#BDAB33" transform="translate(122,17)"/>
<path d="M0 0 C1.65 0.33 3.3 0.66 5 1 C5.33 1.99 5.66 2.98 6 4 C3.6875 4.625 3.6875 4.625 1 5 C0.01 4.34 -0.98 3.68 -2 3 C-1.34 2.01 -0.68 1.02 0 0 Z " fill="#D8AE08" transform="translate(66,34)"/>
<path d="M0 0 C1.32 0.66 2.64 1.32 4 2 C4 2.99 4 3.98 4 5 C2.02 5 0.04 5 -2 5 C-2.33 4.34 -2.66 3.68 -3 3 C-2.01 3 -1.02 3 0 3 C0 2.01 0 1.02 0 0 Z " fill="#CEAF16" transform="translate(68,23)"/>
<path d="M0 0 C0.99 1.32 1.98 2.64 3 4 C0.69 4.66 -1.62 5.32 -4 6 C-1.125 1.125 -1.125 1.125 0 0 Z " fill="#D2B824" transform="translate(161,75)"/>
<path d="M0 0 C2.97 0.495 2.97 0.495 6 1 C5.34 2.65 4.68 4.3 4 6 C3.34 6 2.68 6 2 6 C1.34 4.02 0.68 2.04 0 0 Z " fill="#D6B511" transform="translate(98,33)"/>
<path d="M0 0 C0.33 1.32 0.66 2.64 1 4 C1.99 4 2.98 4 4 4 C4 4.66 4 5.32 4 6 C2.35 6 0.7 6 -1 6 C-1 5.34 -1 4.68 -1 4 C-1.99 3.67 -2.98 3.34 -4 3 C-3.01 2.34 -2.02 1.68 -1 1 C-0.67 0.67 -0.34 0.34 0 0 Z " fill="#D0A306" transform="translate(77,32)"/>
<path d="M0 0 C0.99 0 1.98 0 3 0 C3 0.99 3 1.98 3 3 C2.34 3 1.68 3 1 3 C1.33 4.98 1.66 6.96 2 9 C1.34 9 0.68 9 0 9 C0 6.03 0 3.06 0 0 Z " fill="#E7FFFE" transform="translate(139,98)"/>
<path d="M0 0 C0.66 0 1.32 0 2 0 C2.33 1.65 2.66 3.3 3 5 C1.68 5.33 0.36 5.66 -1 6 C-1.042721 4.33388095 -1.04063832 2.66617115 -1 1 C-0.67 0.67 -0.34 0.34 0 0 Z " fill="#DBB30C" transform="translate(85,21)"/>
</svg>
